name D:\school\WTK\thesis\model\3dpredictsim\Results\Batchsim_tmt_linear_v2\Pog_s1_tmt_aCst_d02_k800_ig24_pas.mot
datacolumns 128
datarows 4
range 1.61631817 1.64864453
endheader
time	pelvis_tilt	pelvis_list	pelvis_rotation	pelvis_tx	pelvis_ty	pelvis_tz	hip_flexion_l	hip_adduction_l	hip_rotation_l	hip_flexion_r	hip_adduction_r	hip_rotation_r	knee_angle_l	knee_angle_r	ankle_angle_l	ankle_angle_r	subtalar_angle_l	subtalar_angle_r	tmt_angle_l	tmt_angle_r	mtp_angle_l	mtp_angle_r	lumbar_extension	lumbar_bending	lumbar_rotation	arm_flex_l	arm_add_l	arm_rot_l	arm_flex_r	arm_add_r	arm_rot_r	elbow_flex_l	elbow_flex_r	pro_sup_l	pro_sup_r	glut_med1_l/activation	glut_med2_l/activation	glut_med3_l/activation	glut_min1_l/activation	glut_min2_l/activation	glut_min3_l/activation	semimem_l/activation	semiten_l/activation	bifemlh_l/activation	bifemsh_l/activation	sar_l/activation	add_long_l/activation	add_brev_l/activation	add_mag1_l/activation	add_mag2_l/activation	add_mag3_l/activation	tfl_l/activation	pect_l/activation	grac_l/activation	glut_max1_l/activation	glut_max2_l/activation	glut_max3_l/activation	iliacus_l/activation	psoas_l/activation	quad_fem_l/activation	gem_l/activation	peri_l/activation	rect_fem_l/activation	vas_med_l/activation	vas_int_l/activation	vas_lat_l/activation	med_gas_l/activation	lat_gas_l/activation	soleus_l/activation	tib_post_l/activation	flex_dig_l/activation	flex_hal_l/activation	tib_ant_l/activation	per_brev_l/activation	per_long_l/activation	per_tert_l/activation	ext_dig_l/activation	ext_hal_l/activation	ercspn_l/activation	intobl_l/activation	extobl_l/activation	glut_med1_r/activation	glut_med2_r/activation	glut_med3_r/activation	glut_min1_r/activation	glut_min2_r/activation	glut_min3_r/activation	semimem_r/activation	semiten_r/activation	bifemlh_r/activation	bifemsh_r/activation	sar_r/activation	add_long_r/activation	add_brev_r/activation	add_mag1_r/activation	add_mag2_r/activation	add_mag3_r/activation	tfl_r/activation	pect_r/activation	grac_r/activation	glut_max1_r/activation	glut_max2_r/activation	glut_max3_r/activation	iliacus_r/activation	psoas_r/activation	quad_fem_r/activation	gem_r/activation	peri_r/activation	rect_fem_r/activation	vas_med_r/activation	vas_int_r/activation	vas_lat_r/activation	med_gas_r/activation	lat_gas_r/activation	soleus_r/activation	tib_post_r/activation	flex_dig_r/activation	flex_hal_r/activation	tib_ant_r/activation	per_brev_r/activation	per_long_r/activation	per_tert_r/activation	ext_dig_r/activation	ext_hal_r/activation	ercspn_r/activation	intobl_r/activation	extobl_r/activation	
          1.61631817	         -2.91954223	         -0.82593792	         -5.09139455	          2.02039771	          0.87148953	          0.00265655	         26.47448893	         -0.37834743	         -3.70892893	        -18.19923995	          1.25015756	          5.88513852	         -7.34648048	         -4.96396598	          5.84225288	         -9.11826457	          3.95007689	          6.82958175	          0.04299070	          1.37894879	         -0.10163804	         27.27452746	          0.57279656	          3.12270013	          1.62194038	         -8.56059939	        -13.45235089	         13.30667976	          3.77589304	        -13.47256140	         12.32394046	         16.56926321	         25.75445338	         86.51662706	         86.51662706	          0.05000020	          0.08526246	          0.05000031	          0.05000013	          0.05000021	          0.05778889	          0.06957190	          0.06957165	          0.15358608	          0.05788531	          0.05000021	          0.05000094	          0.06616967	          0.08530288	          0.12869742	          0.14481431	          0.05000071	          0.05000052	          0.06956472	          0.05897975	          0.09097614	          0.15540468	          0.05000002	          0.05000004	          0.06619273	          0.05897962	          0.05000026	          0.05000006	          0.05000024	          0.05000025	          0.05000020	          0.05000003	          0.05000010	          0.05000000	          0.05394958	          0.05897958	          0.05897956	          0.45293346	          0.29030223	          0.19221720	          0.14488869	          0.46123564	          0.24438835	          0.05138167	          0.14552932	          0.14000738	          0.26026509	          0.08371675	          0.07359528	          0.25172936	          0.15464787	          0.08726135	          0.05000072	          0.05000007	          0.05000006	          0.05000007	          0.09535135	          0.05009152	          0.05000007	          0.05000013	          0.05000048	          0.05000041	          0.22921463	          0.05000031	          0.05000016	          0.05000161	          0.05000117	          0.05000077	          0.37342979	          0.67085807	          0.05000012	          0.05000130	          0.05897952	          0.31575959	          0.05723381	          0.06482999	          0.06290473	          0.20002429	          0.28893837	          0.23589507	          0.23773062	          0.21779284	          0.29604697	          0.05000000	          0.08861116	          0.14697767	          0.05000007	          0.05000001	          0.05000005	          0.05000000	          0.05000000	          0.05000000	
          1.62709362	         -2.90297968	         -0.88472134	         -5.24773832	          2.03724846	          0.87013879	          0.00252063	         26.06273880	         -0.22361231	         -3.48827712	        -18.05921237	          1.10777596	          5.66919995	         -7.31091129	         -7.01323470	          5.35092238	         -9.81768642	          3.49238822	          7.91428340	          0.04507193	          1.27942354	         -0.07519761	         28.17868676	          0.78737067	          2.95171129	          1.68225258	         -9.75523646	        -13.44980218	         13.11697814	          3.58337654	        -13.50104948	         12.66225332	         16.59890754	         26.58585390	         86.51662706	         86.51662706	          0.05897954	          0.07228155	          0.24922337	          0.05897967	          0.05897962	          0.05000071	          0.05897970	          0.05897950	          0.13290774	          0.05000016	          0.05000090	          0.09680437	          0.11927746	          0.19491235	          0.19872985	          0.17653187	          0.05000005	          0.06958383	          0.05897401	          0.05000023	          0.07712520	          0.21082072	          0.05897955	          0.05219981	          0.05611500	          0.05000024	          0.10028091	          0.06824145	          0.20913332	          0.22427018	          0.17319820	          0.05000001	          0.05000001	          0.05000002	          0.05000000	          0.05000006	          0.05000005	          0.61292384	          0.31122047	          0.16295309	          0.49716235	          0.55081424	          0.36673319	          0.05000001	          0.12337271	          0.11869147	          0.22064017	          0.07097101	          0.06239054	          0.21340400	          0.13110298	          0.07397596	          0.05000040	          0.05000004	          0.05000003	          0.05000007	          0.08083435	          0.12905094	          0.15607210	          0.05000426	          0.05000093	          0.05000012	          0.19431708	          0.11221566	          0.05894160	          0.05000047	          0.05000027	          0.05000029	          0.31657570	          0.60875457	          0.06957143	          0.05000027	          0.05000013	          0.26768569	          0.12771177	          0.15677192	          0.09428262	          0.16957090	          0.24494796	          0.21704149	          0.20153686	          0.18463448	          0.25097441	          0.05000000	          0.07512028	          0.13791119	          0.05000003	          0.05000000	          0.05000003	          0.05000004	          0.05000008	          0.06299853	
          1.63786908	         -2.87929099	         -0.92550246	         -5.37638636	          2.05438367	          0.86870119	          0.00237871	         25.56833923	         -0.07906034	         -3.23133560	        -17.80297659	          0.95574582	          5.44582511	         -7.88447562	         -9.28297746	          4.60602981	        -10.51848225	          3.03525522	          8.99442637	          0.04410031	          1.13354972	         -0.03898791	         28.72617168	          1.02259767	          2.74703569	          1.73518486	        -10.96272260	        -13.45469160	         12.96598318	          3.31871164	        -13.53626317	         12.96303097	         16.63704812	         27.41114807	         86.51662706	         86.51662706	          0.05000003	          0.09425904	          0.21451333	          0.05000013	          0.05000010	          0.05000020	          0.05000014	          0.05000004	          0.11267275	          0.05000000	          0.05000004	          0.08206608	          0.10111768	          0.20265216	          0.22949473	          0.17871380	          0.05897952	          0.05898997	          0.05000015	          0.13045811	          0.13795201	          0.18638743	          0.05000002	          0.05000003	          0.14130581	          0.05000074	          0.08501332	          0.06945081	          0.23404851	          0.25313125	          0.18665570	          0.05000001	          0.05000005	          0.05000000	          0.05881097	          0.05898883	          0.05897974	          0.51960715	          0.34010367	          0.17942945	          0.42147018	          0.48095824	          0.31089864	          0.05000000	          0.10458940	          0.10062088	          0.18704806	          0.06016579	          0.05897951	          0.18091361	          0.11114277	          0.06271325	          0.05000061	          0.05000006	          0.05000012	          0.05000001	          0.06852749	          0.18079314	          0.30280322	          0.11143608	          0.05897995	          0.12454779	          0.16473262	          0.09513109	          0.05000012	          0.05009133	          0.05897906	          0.05897952	          0.26837754	          0.51750278	          0.05897949	          0.05897950	          0.05000027	          0.22693096	          0.13469713	          0.13469719	          0.13469709	          0.14375399	          0.20765501	          0.18399726	          0.17085320	          0.15652422	          0.21276398	          0.05000000	          0.06368336	          0.14672976	          0.05000002	          0.05000002	          0.05000004	          0.05049328	          0.06955213	          0.06957169	
          1.64864453	         -2.85087902	         -0.94812730	         -5.47763195	          2.07162643	          0.86715006	          0.00224494	         24.96188978	          0.03277019	         -2.95039477	        -17.43636096	          0.79955252	          5.21467614	         -8.78831336	        -11.74244642	          3.99762132	        -11.14522843	          2.54158181	         10.03216342	         -0.01646062	          0.92984803	         -0.18866181	         28.71355843	          1.26130342	          2.51162210	          1.77727242	        -12.14595304	        -13.47214034	         12.89598137	          3.01022296	        -13.57493136	         13.22509772	         16.65531238	         28.22977080	         86.51662706	         86.51662706	          0.23418294	          0.26985709	          0.38789228	          0.28444708	          0.19495053	          0.22146441	          0.06955016	          0.08511069	          0.09679021	          0.07144688	          0.05897965	          0.06957166	          0.08572268	          0.17179871	          0.19455458	          0.18575756	          0.05000010	          0.05000934	          0.06927957	          0.19186459	          0.18592966	          0.20118500	          0.05564098	          0.05000020	          0.11979225	          0.05897938	          0.21674122	          0.05887704	          0.19841500	          0.21459242	          0.15823767	          0.05000004	          0.05000007	          0.05000000	          0.05000000	          0.05000791	          0.05000020	          0.56724535	          0.28832355	          0.15211161	          0.66332500	          0.58530774	          0.35388616	          0.05000002	          0.08866583	          0.08530151	          0.19224611	          0.05100565	          0.05000000	          0.16154164	          0.09422147	          0.05316527	          0.06801246	          0.05000007	          0.05000005	          0.05000009	          0.05898017	          0.18637375	          0.26286924	          0.09447019	          0.05000093	          0.10558565	          0.13965237	          0.08475966	          0.05000030	          0.05000020	          0.05000014	          0.05000019	          0.22751748	          0.48287905	          0.05000001	          0.05000007	          0.05000002	          0.19238107	          0.11418971	          0.11418975	          0.11418967	          0.12186767	          0.17603986	          0.15598396	          0.14484108	          0.13269369	          0.18037102	          0.05000020	          0.11505867	          0.12439044	          0.11083386	          0.15502849	          0.05000077	          0.06979663	          0.05896293	          0.05897952	
